Coordinates
version=1
nRows=13
nColumns=40
inDegrees=yes

Units are S.I. units (second, meters, Newtons, ...)
Angles are in degrees.

endheader
time	pelvis_tilt	pelvis_list	pelvis_rotation	pelvis_tx	pelvis_ty	pelvis_tz	hip_flexion_r	hip_adduction_r	hip_rotation_r	knee_angle_r	knee_angle_r_beta	ankle_angle_r	subtalar_angle_r	mtp_angle_r	hip_flexion_l	hip_adduction_l	hip_rotation_l	knee_angle_l	knee_angle_l_beta	ankle_angle_l	subtalar_angle_l	mtp_angle_l	lumbar_extension	lumbar_bending	lumbar_rotation	arm_flex_r	arm_add_r	arm_rot_r	elbow_flex_r	pro_sup_r	wrist_flex_r	wrist_dev_r	arm_flex_l	arm_add_l	arm_rot_l	elbow_flex_l	pro_sup_l	wrist_flex_l	wrist_dev_l
     14.57142857	     -1.76340208	     -1.61634787	     -1.28169158	      1.09294342	      0.91708943	      0.43169031	     28.34415375	     -3.77882529	    -15.19552721	     13.66974233	     13.66974233	      3.10497130	      1.73292984	     10.45229929	     -7.02524344	     -1.33996929	    -16.59033678	     10.61953720	     10.61953720	     19.38180633	     -0.77861859	     -7.14461032	    -10.05076228	      4.00313476	      1.46645616	    -18.55073991	    -10.62285453	    -13.24863860	     21.62904262	     47.37795824	      0.00000000	      0.00000000	     31.00408596	    -18.28025821	      1.41992117	     75.48953852	     47.22465363	      0.00000000	      0.00000000
     14.58285714	     -1.90523533	     -1.60095608	     -0.80514781	      1.09490911	      0.91519880	      0.43271897	     28.21541558	     -3.73660630	    -15.44121537	     13.87094808	     13.87094808	      2.94214300	      1.41255812	     10.39179778	     -7.56297989	     -1.52940106	    -16.21537292	     10.72337901	     10.72337901	     19.74866791	     -0.57970001	     -7.21012648	     -9.61804027	      4.01706284	      1.04871291	    -19.61183396	    -10.52877626	    -13.32075519	     21.31587336	     47.38668895	      0.00000000	      0.00000000	     31.42613557	    -18.50088241	      1.28415432	     75.94736938	     47.24598330	      0.00000000	      0.00000000
     14.59428571	     -2.08652447	     -1.63173619	     -0.35208799	      1.09688391	      0.91313586	      0.43398443	     28.45941334	     -3.66857812	    -15.02411459	     14.94558738	     14.94558738	      2.29703741	     -0.18192603	      8.80855508	     -7.75528351	     -1.91531724	    -16.05712902	     11.49410993	     11.49410993	     20.60043547	     -0.14149655	     -6.66130807	     -9.36250410	      4.06386032	      1.41031805	    -21.02027701	    -10.13944757	    -13.69351617	     21.53189788	     47.38919822	      0.00000000	      0.00000000	     31.37121985	    -18.19743372	      1.25944625	     78.96600743	     47.31294317	      0.00000000	      0.00000000
     14.60571429	     -2.12477152	     -1.74963761	      0.17167289	      1.09931793	      0.91156051	      0.43544611	     28.06813882	     -3.43486266	    -14.71474043	     15.28545360	     15.28545360	     -0.19526909	     -2.16287310	      2.41643265	     -8.08080506	     -2.52853587	    -16.32799931	     12.45209791	     12.45209791	     22.19236883	      1.38590222	     -4.38275116	     -9.16523721	      4.18484330	      0.54286253	    -21.91115445	    -10.06289179	    -14.84836766	     22.80633932	     47.39153670	      0.00000000	      0.00000000	     30.27111525	    -18.96614560	      0.32290840	     82.09252172	     47.48785613	      0.00000000	      0.00000000
     14.61714286	     -2.23713944	     -1.84485862	      0.67086260	      1.10158354	      0.91016644	      0.43681675	     28.23181516	     -3.41352033	    -14.39493662	     16.80475305	     16.80475305	     -0.58332946	     -3.66702512	      1.57612972	     -8.34793365	     -2.98006828	    -15.83891367	     13.14809540	     13.14809540	     22.49423993	      1.25091029	     -4.38127951	     -8.85736131	      4.30673479	      0.71593796	    -22.68634465	     -9.86100144	    -14.90768288	     22.51064045	     47.39524988	      0.00000000	      0.00000000	     30.33187905	    -18.53054672	      0.30731541	     83.06431935	     47.51734225	      0.00000000	      0.00000000
     14.62857143	     -2.28699026	     -2.06129784	      1.14076594	      1.10402026	      0.90906170	      0.43849073	     28.15401930	     -3.13067606	    -13.72433738	     17.97431115	     17.97431115	     -1.95539070	     -6.16276497	     -1.61994184	     -8.56279565	     -3.66378508	    -15.58015242	     14.12833996	     14.12833996	     22.97723152	      1.43242962	     -3.98978491	     -8.66116620	      4.57288142	      0.41466464	    -23.07883252	     -9.84513493	    -15.25862945	     22.80977987	     47.37974214	      0.00000000	      0.00000000	     29.42501342	    -18.63884628	     -0.25491115	     85.18612214	     47.63389410	      0.00000000	      0.00000000
     14.64000000	     -2.10164865	     -2.32826273	      1.68416569	      1.10677137	      0.90885969	      0.44003617	     27.76546248	     -2.99793506	    -13.86611585	     19.31384521	     19.31384521	     -1.81200353	     -6.88404685	     -1.96970040	     -9.15117824	     -4.35186822	    -15.07298151	     14.80055097	     14.80055097	     22.92855512	      1.28991811	     -4.04832481	     -8.58232634	      4.92830482	      0.41083785	    -23.36141180	     -9.65390630	    -15.24368263	     22.66763877	     47.37969305	      0.00000000	      0.00000000	     29.04938158	    -18.30313517	     -0.19873811	     85.41543546	     47.63468331	      0.00000000	      0.00000000
     14.65142857	     -2.32402906	     -2.39718541	      2.07274105	      1.10888897	      0.90784126	      0.44198760	     28.30160542	     -2.97825199	    -13.17961319	     21.38085088	     21.38085088	     -1.67383726	     -8.80521926	     -2.61622736	     -8.63434481	     -4.97684217	    -14.49981657	     16.71144271	     16.71144271	     22.92688806	      0.55289175	     -4.58100005	     -8.26801192	      4.91502258	      0.77212603	    -23.44333321	     -9.51625189	    -15.24267243	     22.61454992	     47.37425571	      0.00000000	      0.00000000	     28.56119284	    -17.81166472	     -0.46129618	     86.82546420	     47.68472169	      0.00000000	      0.00000000
     14.66285714	     -2.28413299	     -2.65584491	      2.48629470	      1.11132219	      0.90783048	      0.44405965	     28.13698561	     -2.69031404	    -12.81014073	     22.71108038	     22.71108038	     -1.42609656	    -10.27843737	     -3.15854145	     -8.48989319	     -5.79573222	    -13.91791068	     18.35341521	     18.35341521	     22.06292495	     -0.36486384	     -6.40876092	     -8.21116927	      5.16226448	      0.15208773	    -22.67102205	     -9.72748906	    -15.05470954	     22.40191852	     47.34446639	      0.00000000	      0.00000000	     26.78789347	    -17.84378258	     -1.88161316	     89.10676528	     47.85579371	      0.00000000	      0.00000000
     14.67428571	     -2.01697052	     -2.88634906	      2.82941359	      1.11383235	      0.90853810	      0.44621925	     27.64151825	     -2.46567210	    -12.81797170	     23.93014399	     23.93014399	     -0.75455990	    -10.88583696	     -3.47477144	     -8.45300197	     -6.61418799	    -13.37845902	     20.29358236	     20.29358236	     21.47135226	     -1.16267383	     -6.81497373	     -8.38507942	      5.42713835	      0.51004394	    -22.27995770	     -9.76840809	    -14.99468090	     22.42462584	     47.33977680	      0.00000000	      0.00000000	     26.04911915	    -17.41189760	     -1.82026773	     89.25818679	     47.85455712	      0.00000000	      0.00000000
     14.68571429	     -2.16927968	     -3.10773624	      3.21217960	      1.11579083	      0.90887501	      0.44847561	     27.60189318	     -2.25243185	    -12.79895354	     25.08962799	     25.08962799	      0.46057413	    -11.38506380	     -2.28751030	     -7.53672692	     -7.40283272	    -12.30713655	     22.66632761	     22.66632761	     18.86953884	     -3.73759711	    -11.38227991	     -8.12759285	      5.58212623	      0.01089325	    -20.97033244	    -10.01139370	    -14.29649224	     21.71299508	     47.29355020	      0.00000000	      0.00000000	     24.20238738	    -17.16553341	     -3.15919427	     90.85434596	     48.00997953	      0.00000000	      0.00000000
     14.69714286	     -2.09689016	     -3.33846074	      3.53970373	      1.11773008	      0.90985393	      0.45091523	     27.07355868	     -1.98860735	    -13.03191540	     25.75632363	     25.75632363	      1.30342322	    -11.56373258	     -2.51950516	     -6.53859327	     -8.33089208	    -11.55149388	     25.79198436	     25.79198436	     17.58213028	     -5.18718802	    -12.19514409	     -8.12974007	      5.77267496	      0.37434625	    -20.15987989	    -10.04019176	    -14.16136578	     21.84925236	     47.28004606	      0.00000000	      0.00000000	     23.23452245	    -16.63939640	     -3.08308510	     90.79573395	     48.00499924	      0.00000000	      0.00000000
     14.70857143	     -1.84840102	     -3.54997787	      3.82399554	      1.11957231	      0.91131048	      0.45344410	     26.25204963	     -1.69485984	    -13.33495531	     26.22044778	     26.22044778	      2.21655316	    -11.56421008	     -2.75393566	     -5.56453831	     -9.24558734	    -10.81755539	     29.12208124	     29.12208124	     15.89363378	     -6.77689774	    -12.87210031	     -8.38005360	      5.95056847	      0.73997852	    -19.11501869	    -10.15497112	    -14.05675222	     22.07488084	     47.26959070	      0.00000000	      0.00000000	     22.19900013	    -16.15149103	     -3.03966766	     90.61102091	     47.99659049	      0.00000000	      0.00000000
